<svg xmlns="http://www.w3.org/2000/svg" viewBox="0 0 312.59 171.05"><defs><style>.cls-1{fill:#fff;}</style></defs><title>built-in-birmingham-logo-alt-4</title><g id="Layer_2" data-name="Layer 2"><g id="Layer_1-2" data-name="Layer 1"><path class="cls-1" d="M9.21,53.45l13.57-3.63c5.33-1.43,6.65.54,6.65,2.61v.28c0,2.32-2,4-3.42,4.59,2.1-.26,4.35.46,4.35,3.43V61c0,2.52-1.53,5.78-7.5,7.38L9.21,72.05ZM14.36,56v3.32L22,57.22c1.55-.42,2-1.3,2-2.17v0c0-.9-.5-1.52-2-1.11Zm0,7v3.67l8.07-2.16c1.83-.49,2.33-1.55,2.33-2.5v-.1c0-.92-.5-1.56-2.33-1.07Z"/><path class="cls-1" d="M35.19,55.94V46.49l5.15-1.38v9.32c0,2.13.6,5,5.33,3.75l.12,0c4.75-1.27,5.27-4.46,5.27-6.59V42.24l5.13-1.37v9.44c0,3.73-1.33,9.78-10.1,12.13l-.72.2C36.24,65.08,35.19,59.64,35.19,55.94Z"/><path class="cls-1" d="M67.26,56.5l-5.15,1.37V39.28l5.15-1.38Z"/><path class="cls-1" d="M78.51,34.88V49.11l11.37-3v4.37L73.36,54.86V36.26Z"/><path class="cls-1" d="M98.46,33.79l-7.2,1.93V31.47l19.52-5.23v4.25l-7.2,1.93V46.76l-5.12,1.38Z"/><path class="cls-1" d="M135.92,38.1l-5.15,1.38V20.88l5.15-1.38Z"/><path class="cls-1" d="M146.84,23.12V35.17l-5,1.35V17.92l5.3-1.42L158,25.56v-12l5-1.34V30.84l-5.05,1.36Z"/><path class="cls-1" d="M214.16,134.71,209,136.1V131l5.16-1.38Z"/><path class="cls-1" d="M227.13,128.85V119.4l5.15-1.38v9.32c0,2.13.6,5,5.32,3.75l.13,0c4.75-1.27,5.27-4.46,5.27-6.58v-9.33l5.13-1.37v9.45c0,3.72-1.33,9.78-10.1,12.13l-.73.19C228.18,138,227.13,132.54,227.13,128.85Z"/><path class="cls-1" d="M264.17,128.39c-8.73,2.34-9.73-1.34-9.73-3.56v-.28l5.6-1.5c.08.81.43,2.56,4.38,1.5l.17,0c3.88-1,4.38-2.35,4.38-3.4s-.73-1.63-3.8-.91l-2.48.59c-6.09,1.46-8-.47-8-3.27v-.22c0-2.88,1.54-5.91,9.24-8l.85-.22c8.23-2.21,9.35.49,9.35,2.94v.27l-5.52,1.48c-.13-.79-.6-1.88-4.18-.93l-.25.07c-3.3.88-4.07,1.72-4.07,2.74s.67,1.47,3.6.81l2.57-.59c6.62-1.52,8.22.22,8.22,3.25v.3c0,2.72-1.24,6.53-9.57,8.76Z"/><path class="cls-1" d="M296.33,116l-10.05,2.69-1.5,3.86-5.17,1.38,8.25-20.8,6.89-1.85,8.63,16.28L297.85,119Zm-5.1-10L288,114.42l6.65-1.78Z"/><path class="cls-1" d="M167.07,150.64l-10,2.69-1.5,3.85-5.17,1.39,8.25-20.81,6.9-1.85,8.62,16.29-5.52,1.48Zm-5.1-10-3.27,8.45,6.65-1.78Z"/><path class="cls-1" d="M185.76,130.48v14.23l11.37-3.05V146l-16.52,4.43v-18.6Z"/><path class="cls-1" d="M20.22,126.29l-1.8.48V148.5l2.48-.67c2.89-.77,4.16-5,4.16-12.12C25.06,127.7,23.41,125.43,20.22,126.29Z"/><path class="cls-1" d="M65.94,84.18l-2.25.61V106.9l2.73-.73c2.42-.65,3.86-3.83,3.86-12C70.28,87,69.22,83.31,65.94,84.18Z"/><polygon class="cls-1" points="245.03 76.31 251.23 74.65 248.08 51.49 245.03 76.31"/><path class="cls-1" d="M21.09,95.93l-2.67.71v21l1.7-.45c3.19-.86,4.94-4.22,4.94-12.14C25.06,97.57,23.41,95.31,21.09,95.93Z"/><path class="cls-1" d="M0,83.76v87.29L312.59,87.29V0Zm22.34,72.09L9.21,159.37V90.51L21.57,87.2C29.49,85.08,34,88.6,34,101.73c0,10.53-3,15.38-6.76,17.55v.39c4.73.28,7,4.22,7,13.39C34.22,147.93,29,154.06,22.34,155.85Zm26.31-7-9.15,2.45V82.4L48.65,80Zm22.06-5.92-4.35-27.65-2.67.72v28.81l-9.14,2.45V78.35l10.59-2.83C73.06,73.39,79,76.43,79,91.1c0,10.43-2.61,15-4.45,17.55l5.27,31.78Zm50.17-13.43-8.37,2.24v-42l-6.88,43.84-5.9,1.58L92.84,95v42l-8.36,2.24V70.35L95.1,67.5l7.58,42.7,7.57-46.76,10.63-2.85Zm15-4-9.15,2.45V59l9.15-2.45Zm31.76-8.52-8.45,2.27-9-36.72V121.6l-8.36,2.24V55l8.46-2.26,9.05,36.72V50.29l8.35-2.24Zm30.8-53.35L189.34,66V53.94c0-1.31-.32-3.1-3.25-2.31H186c-2.91.78-3.28,2.76-3.28,4.07v45.47c0,1.31.37,3.08,3.28,2.3h.06c2.93-.79,3.25-2.75,3.25-4.06V83.2l-3.3.88v-9l12.44-3.33V98c0,4.42-1.57,11.6-12,14.38l-.86.23c-10.82,2.9-12.06-3.55-12.06-7.94V57.1c0-4.38,1.24-11.51,12.06-14.4l.86-.23c10.4-2.79,12,3.55,12,8Zm30.79,36.85-9.15,2.45V72.7l-6.59,1.76v30.16l-9.14,2.45V38.22l9.14-2.45V65.41l6.59-1.76V34l9.15-2.45Zm24.31-6.51-1.47-10.43L244,85.62l-1.37,11.19-9.15,2.45,10-71.54,9.15-2.45,10,66.17Zm49.8-13.34L295,82.79v-42l-6.89,43.84-5.9,1.58-6.89-40.15v42L267,90.3V21.45l10.63-2.85,7.57,42.7,7.57-46.76,10.63-2.85Z"/></g></g></svg>