<svg xmlns="http://www.w3.org/2000/svg" viewBox="0 0 294.17 137.34"><title>built-in-birmingham-logo-primary</title><g id="Layer_2" data-name="Layer 2"><g id="Layer_1-2" data-name="Layer 1"><path d="M75.27,0H88.84c5.33,0,6.65,2.32,6.65,4.4v.27a3.82,3.82,0,0,1-3.42,3.68c2.1.3,4.35,1.62,4.35,4.6v.27c0,2.53-1.53,5.38-7.5,5.38H75.27Zm5.15,3.87V7.2h7.67c1.55,0,2-.75,2-1.63V5.52c0-.9-.5-1.65-2-1.65Zm0,7v3.67h8.07c1.83,0,2.33-.92,2.33-1.87v-.1c0-.93-.5-1.7-2.33-1.7Z"/><path d="M100.78,9.45V0h5.15V9.32c0,2.13.6,5.18,5.33,5.18h.12c4.75,0,5.27-3.05,5.27-5.18V0h5.13V9.45c0,3.72-1.33,9.42-10.1,9.42H111C101.83,18.87,100.78,13.15,100.78,9.45Z"/><path d="M132.23,18.6h-5.14V0h5.14Z"/><path d="M142.68,0V14.22h11.37V18.6H137.53V0Z"/><path d="M161.22,4.25H154V0h19.52V4.25h-7.2V18.6h-5.13Z"/><path d="M193.59,18.6h-5.14V0h5.14Z"/><path d="M203.92,6.55V18.6h-5V0h5.3l10.87,12V0h5V18.6H215Z"/><path d="M132.23,137h-5.15v-4.37h5.15Z"/><path d="M145.42,127.87v-9.45h5.15v9.32c0,2.12.6,5.17,5.33,5.17H156c4.75,0,5.27-3,5.27-5.17v-9.32h5.13v9.45c0,3.72-1.33,9.42-10.1,9.42h-.72C146.47,137.29,145.42,131.56,145.42,127.87Z"/><path d="M182,137.34c-8.72,0-9.72-4-9.72-6.18v-.27h5.6c.07.82.42,2.67,4.37,2.67h.18c3.87,0,4.37-1.17,4.37-2.22s-.72-1.82-3.8-1.92l-2.47-.08c-6.1-.17-8.05-2.62-8.05-5.42v-.23c0-2.87,1.55-5.5,9.25-5.5h.85c8.22,0,9.34,3,9.34,5.45v.28h-5.52c-.12-.83-.6-2-4.17-2H182c-3.3,0-4.08.62-4.08,1.65s.68,1.65,3.6,1.77l2.58.1c6.62.25,8.22,2.43,8.22,5.45v.3c0,2.72-1.25,6.2-9.57,6.2Z"/><path d="M213.66,133.56h-10l-1.5,3.45h-5.17l8.24-18.59h6.9L220.7,137h-5.52Zm-5.1-11.39-3.28,7.57h6.65Z"/><path d="M90.16,133.56h-10L78.61,137H73.43l8.25-18.59h6.9L97.2,137H91.68Zm-5.1-11.39-3.28,7.57h6.65Z"/><path d="M108.4,118.42v14.22h11.38V137H103.26V118.42Z"/><path d="M0,11.86V6.72H54.49v5.14Z"/><path d="M30.29,34.07h9.15v68.85H30.29Z"/><path d="M117.56,34.07h9.15v68.85h-9.15Z"/><path d="M132.61,34.07h8.46l9.05,39.15V34.07h8.36v68.85H150L141,63.78v39.14h-8.36Z"/><path d="M234.34,34.07h9.15l10,68.85h-9.14L242.9,92.11h-8.06l-1.38,10.81h-9.15Zm7.68,49-3.15-24-3.05,24Z"/><polygon points="101.04 34.07 93.47 78.81 85.9 34.07 75.27 34.07 75.27 102.92 83.63 102.92 83.63 60.93 90.52 102.92 96.42 102.92 103.31 60.93 103.31 102.92 111.67 102.92 111.67 34.07 101.04 34.07"/><path d="M0,34.07H12.36c7.92,0,12.46,4.73,12.46,17.87,0,10.52-3,14.58-6.76,15.74v.38c4.73,1.55,7,6.09,7,15.26,0,14.87-5.22,19.61-11.88,19.61H0ZM10.92,63.72c3.18,0,4.93-2.9,4.93-10.82,0-7.53-1.65-10.23-4-10.23H9.22v21Zm.77,30.8c2.9,0,4.16-3.86,4.16-11,0-8-1.65-10.71-4.84-10.71H9.22V94.52Z"/><path d="M195.18,34.07h9.15V63.72h6.59V34.07h9.14v68.85h-9.14V72.77h-6.59v30.15h-9.15Z"/><path d="M177.3,33.53h-.86c-10.82,0-12.06,6.79-12.06,11.18V92.29c0,4.39,1.24,11.18,12.06,11.18h.86c10.41,0,12-6.76,12-11.18V66H176.84v9h3.29V91.23c0,1.31-.32,3.19-3.24,3.19h-.07c-2.91,0-3.28-1.88-3.28-3.19V45.76c0-1.3.37-3.18,3.28-3.18h.07c2.92,0,3.24,1.88,3.24,3.18V57.83h9.15V44.71C189.28,40.29,187.71,33.53,177.3,33.53Z"/><polygon points="283.55 34.07 275.97 78.81 268.4 34.07 257.77 34.07 257.77 102.92 266.14 102.92 266.14 60.93 273.02 102.92 278.92 102.92 285.81 60.93 285.81 102.92 294.17 102.92 294.17 34.07 283.55 34.07"/><path d="M45.34,34.06H55.93c7.92,0,13.91,4.63,13.91,19.31,0,10.43-2.62,14.33-4.45,16.36l5.26,33.18H61.5L57.15,74.1H54.49v28.8H45.34Zm11.87,31c2.42,0,3.87-2.8,3.87-11,0-7.15-1.06-11.11-4.35-11.11H54.49V65.06Z"/><path d="M0,130.26v-5.15H54.49v5.15Z"/><path d="M239.68,11.86V6.72h54.49v5.14Z"/><path d="M239.69,130.26v-5.15h54.48v5.15Z"/></g></g></svg>