<?xml version="1.0" standalone="no"?>
<!DOCTYPE svg PUBLIC "-//W3C//DTD SVG 20010904//EN"
 "http://www.w3.org/TR/2001/REC-SVG-20010904/DTD/svg10.dtd">
<svg version="1.0" xmlns="http://www.w3.org/2000/svg"
 width="700.000000pt" height="700.000000pt" viewBox="0 0 700.000000 700.000000"
 preserveAspectRatio="xMidYMid meet">
<metadata>
Created by potrace 1.11, written by Peter Selinger 2001-2013
</metadata>
<g transform="translate(0.000000,700.000000) scale(0.100000,-0.100000)"
fill="#000000" stroke="none">
<path d="M1080 3505 l0 -2366 528 4 c450 3 535 6 580 20 342 103 520 385 594
937 16 126 17 595 0 720 -33 247 -105 438 -209 551 -64 68 -155 133 -215 151
-21 6 -38 17 -38 24 0 7 29 26 65 43 151 70 249 195 319 405 58 175 93 496 81
751 -21 466 -106 734 -291 921 -57 58 -90 81 -165 118 -165 79 -158 78 -736
83 l-513 4 0 -2366z m853 1764 c78 -21 148 -116 182 -246 44 -167 58 -497 30
-718 -27 -216 -68 -329 -146 -399 -55 -50 -100 -65 -214 -73 l-85 -6 0 727 0
726 98 0 c53 0 114 -5 135 -11z m0 -2073 c137 -49 206 -215 227 -552 22 -349
-16 -656 -100 -801 -54 -94 -115 -122 -262 -123 l-78 0 0 745 0 745 88 0 c48
-1 104 -7 125 -14z"/>
<path d="M3160 3505 l0 -2365 310 0 310 0 0 2365 0 2365 -310 0 -310 0 0
-2365z"/>
<path d="M4200 3505 l0 -2365 495 0 c528 0 577 4 699 51 264 105 432 385 501
839 23 145 32 575 15 733 -40 399 -161 629 -387 739 -84 40 -98 54 -65 64 192
64 327 243 395 525 43 175 52 275 51 559 0 283 -12 399 -59 586 -94 370 -306
577 -639 623 -46 7 -263 11 -542 11 l-464 0 0 -2365z m895 1751 c73 -48 124
-144 157 -294 19 -86 22 -129 22 -377 1 -298 -6 -364 -50 -505 -56 -179 -155
-250 -347 -250 l-47 0 0 726 0 726 119 -4 c93 -3 124 -8 146 -22z m-5 -2076
c145 -81 210 -341 197 -785 -10 -324 -50 -499 -139 -600 -48 -56 -79 -67 -200
-73 l-108 -5 0 748 0 747 103 -4 c85 -3 109 -8 147 -28z"/>
</g>
</svg>
